<svg width="148" height="130" viewBox="0 0 148 130" fill="none" xmlns="http://www.w3.org/2000/svg">
<path d="M70 2.3094C72.4752 0.880339 75.5248 0.880339 78 2.3094L101.177 15.6906C103.652 17.1197 105.177 19.7607 105.177 22.6188V49.3812C105.177 52.2393 103.652 54.8803 101.177 56.3094L78 69.6906C75.5248 71.1197 72.4752 71.1197 70 69.6906L46.8231 56.3094C44.3479 54.8803 42.8231 52.2393 42.8231 49.3812V22.6188C42.8231 19.7607 44.3479 17.1197 46.8231 15.6906L70 2.3094Z" fill="#111827"/>
<path d="M81.1676 45.1146L64.3131 52.2164C62.5622 52.9528 61.0403 50.7764 62.3331 49.3855L75.1131 35.5091L81.7403 42.2509C82.624 43.1346 82.3295 44.64 81.1676 45.1146Z" fill="white"/>
<path d="M85.7331 22.5328L75.1131 35.5091L68.4859 28.8C67.6022 27.9 67.8967 26.3946 69.0586 25.92L83.6877 19.7837C85.3895 19.0637 86.9113 21.1091 85.7331 22.5328Z" fill="white"/>
<path d="M10.2656 120.391C15.9531 120.391 19.3594 117.641 19.3594 113.312V113.297C19.3594 109.75 17.2344 107.828 12.5156 106.891L10.125 106.406C7.53125 105.891 6.375 105.062 6.375 103.641V103.625C6.375 102.016 7.82812 100.906 10.25 100.891C12.5781 100.891 14.2031 101.969 14.4375 103.734L14.4531 103.922H18.9062L18.8906 103.625C18.6719 99.6719 15.4688 97.0625 10.25 97.0625C5.25 97.0625 1.65625 99.7812 1.65625 103.906V103.922C1.65625 107.312 3.90625 109.438 8.35938 110.328L10.7344 110.797C13.5312 111.375 14.6406 112.141 14.6406 113.672V113.688C14.6406 115.406 13 116.547 10.3906 116.547C7.8125 116.547 5.95312 115.453 5.65625 113.703L5.625 113.531H1.17188L1.1875 113.781C1.45312 117.938 4.90625 120.391 10.2656 120.391ZM21.8594 120H26.4219V109.891C26.4219 108 27.5938 106.688 29.3281 106.688C31.0156 106.688 32.0312 107.75 32.0312 109.547V120H36.4219V109.812C36.4219 107.953 37.5625 106.688 39.2969 106.688C41.0625 106.688 42.0312 107.75 42.0312 109.688V120H46.5938V108.547C46.5938 105.172 44.3906 102.906 41.1094 102.906C38.6562 102.906 36.6562 104.25 35.9062 106.359H35.8125C35.25 104.156 33.5469 102.906 31.2031 102.906C28.9531 102.906 27.2031 104.156 26.5156 106.062H26.4219V103.25H21.8594V120ZM54.4688 120.266C56.6719 120.266 58.4531 119.219 59.4062 117.5H59.5V120H64.0625V108.516C64.0625 105.141 61.2656 102.906 56.9375 102.906C52.5156 102.906 49.8594 105.125 49.6094 108.219L49.5938 108.406H53.7656L53.7969 108.266C54.0156 107.188 55.0469 106.391 56.75 106.391C58.5312 106.391 59.5 107.312 59.5 108.797V109.828L55.3594 110.078C51.2031 110.344 48.8438 112.125 48.8438 115.172V115.203C48.8438 118.156 51.1094 120.266 54.4688 120.266ZM53.3594 114.969V114.938C53.3594 113.75 54.2812 113 56.0469 112.891L59.5 112.672V113.875C59.5 115.625 58 116.938 55.9531 116.938C54.375 116.938 53.3594 116.203 53.3594 114.969ZM67.0156 120H71.5781V110.625C71.5781 108.188 72.8906 106.844 75.1406 106.844C75.7969 106.844 76.4219 106.938 76.7969 107.094V103.078C76.4531 102.984 75.9844 102.906 75.4844 102.906C73.5312 102.906 72.1719 104.109 71.6719 106.172H71.5781V103.25H67.0156V120ZM85.3281 120.344C86.2812 120.344 87.0156 120.25 87.5312 120.172V116.828C87.25 116.859 86.9531 116.906 86.5469 116.906C85.1719 116.906 84.4688 116.375 84.4688 114.812V106.688H87.5312V103.25H84.4688V99.1562H79.8594V103.25H77.5312V106.688H79.8594V115.312C79.8594 118.906 81.6094 120.344 85.3281 120.344Z" fill="#111827"/>
<path d="M90.0469 125.469H94.6094V117.141H94.7031C95.6094 119.125 97.5 120.344 99.8906 120.344C104.078 120.344 106.672 117.062 106.672 111.625V111.609C106.672 106.156 104.078 102.906 99.8281 102.906C97.4531 102.906 95.625 104.141 94.7188 106.172H94.6094V103.25H90.0469V125.469ZM98.3281 116.562C96.1094 116.562 94.5938 114.656 94.5938 111.641V111.625C94.5938 108.594 96.1094 106.688 98.3281 106.688C100.594 106.688 102.031 108.547 102.031 111.609V111.625C102.031 114.672 100.594 116.562 98.3281 116.562ZM114.031 120.266C116.234 120.266 118.016 119.219 118.969 117.5H119.062V120H123.625V108.516C123.625 105.141 120.828 102.906 116.5 102.906C112.078 102.906 109.422 105.125 109.172 108.219L109.156 108.406H113.328L113.359 108.266C113.578 107.188 114.609 106.391 116.312 106.391C118.094 106.391 119.062 107.312 119.062 108.797V109.828L114.922 110.078C110.766 110.344 108.406 112.125 108.406 115.172V115.203C108.406 118.156 110.672 120.266 114.031 120.266ZM112.922 114.969V114.938C112.922 113.75 113.844 113 115.609 112.891L119.062 112.672V113.875C119.062 115.625 117.562 116.938 115.516 116.938C113.938 116.938 112.922 116.203 112.922 114.969ZM129.109 125.516C132.828 125.516 135.078 124.25 136.391 120.297L142.141 103.25H137.328L133.781 116.344H133.656L130.125 103.25H125.109L131.031 120L130.828 120.547C130.422 121.688 129.672 122.078 128.312 122.078C127.641 122.078 127.109 121.984 126.781 121.922V125.312C127.312 125.406 128.219 125.516 129.109 125.516ZM143.984 120.266C145.391 120.266 146.516 119.141 146.516 117.734C146.516 116.312 145.391 115.203 143.984 115.203C142.562 115.203 141.453 116.312 141.453 117.734C141.453 119.141 142.562 120.266 143.984 120.266Z" fill="#0A6375"/>
</svg>
